<?xml version="1.0" encoding="UTF-8" standalone="no"?>
<svg width="14px" height="26px" viewBox="0 0 14 26" version="1.1" xmlns="http://www.w3.org/2000/svg" xmlns:xlink="http://www.w3.org/1999/xlink" xmlns:sketch="http://www.bohemiancoding.com/sketch/ns">
    <!-- Generator: Sketch 3.3.3 (12081) - http://www.bohemiancoding.com/sketch -->
    <title>Shape</title>
    <desc>Created with Sketch.</desc>
    <defs></defs>
    <g id="Page-1" stroke="none" stroke-width="1" fill="none" fill-rule="evenodd" sketch:type="MSPage">
        <path d="M4.25,22.665 L9.75,22.665 L9.75,17.501 L4.25,17.501 L4.25,22.665 L4.25,22.665 Z M7,25.333 C8.894,25.333 9.483,24.306 9.667,23.667 L4.333,23.667 C4.517,24.306 5.106,25.333 7,25.333 L7,25.333 Z M7,0 C3.134,0 0,3.134 0,7 C0,10.859 3.945,11.937 4.223,16.499 L5.494,16.499 C5.485,16.474 5.47,16.45 5.465,16.421 L3.465,5.423 C3.422,5.178 3.564,4.938 3.8,4.86 C4.037,4.782 4.294,4.886 4.405,5.11 L4.958,6.216 L5.511,5.11 C5.595,4.94 5.768,4.833 5.957,4.833 C6.146,4.833 6.319,4.94 6.403,5.11 L6.956,6.216 L7.509,5.11 C7.593,4.94 7.766,4.833 7.957,4.833 C8.146,4.833 8.317,4.94 8.403,5.11 L8.957,6.216 L9.51,5.11 C9.621,4.886 9.878,4.781 10.114,4.86 C10.35,4.939 10.491,5.178 10.447,5.423 L8.448,16.421 C8.443,16.45 8.428,16.474 8.419,16.499 L9.775,16.499 C10.053,11.937 13.999,10.86 13.999,7 C14,3.135 10.866,0 7,0 L7,0 Z M8.958,7.833 C8.767,7.833 8.594,7.726 8.512,7.558 L7.958,6.452 L7.405,7.558 C7.319,7.726 7.148,7.833 6.959,7.833 C6.768,7.833 6.595,7.726 6.51,7.558 L5.957,6.452 L5.404,7.558 C5.32,7.726 5.147,7.833 4.958,7.833 C4.946,7.833 4.933,7.833 4.921,7.832 L6.375,15.833 L7.542,15.833 L8.996,7.832 C8.982,7.833 8.97,7.833 8.958,7.833 L8.958,7.833 Z" id="Shape" fill="#F0EFEF" sketch:type="MSShapeGroup"></path>
    </g>
</svg>