<?xml version="1.0" encoding="UTF-8" standalone="no"?>
<svg width="31px" height="31px" viewBox="0 0 31 31" version="1.1" xmlns="http://www.w3.org/2000/svg" xmlns:xlink="http://www.w3.org/1999/xlink" xmlns:sketch="http://www.bohemiancoding.com/sketch/ns">
    <!-- Generator: Sketch 3.3.3 (12081) - http://www.bohemiancoding.com/sketch -->
    <title>Shape</title>
    <desc>Created with Sketch.</desc>
    <defs></defs>
    <g id="Page-1" stroke="none" stroke-width="1" fill="none" fill-rule="evenodd" sketch:type="MSPage">
        <path d="M30.562,17.069 C30.626,16.498 30.666,15.921 30.666,15.333 C30.666,14.745 30.626,14.167 30.562,13.596 L26.185,12.039 C25.967,11.323 25.681,10.638 25.334,9.989 L27.327,5.797 C26.602,4.887 25.778,4.063 24.869,3.338 L20.676,5.332 C20.029,4.985 19.342,4.7 18.627,4.483 L17.069,0.105 C16.498,0.041 15.921,0 15.333,0 C14.745,0 14.167,0.041 13.596,0.105 L12.04,4.483 C11.324,4.7 10.639,4.985 9.99,5.332 L5.797,3.338 C4.887,4.063 4.063,4.887 3.338,5.797 L5.332,9.989 C4.985,10.637 4.7,11.323 4.483,12.039 L0.105,13.596 C0.041,14.167 0,14.745 0,15.333 C0,15.921 0.041,16.498 0.105,17.069 L4.483,18.627 C4.7,19.342 4.985,20.028 5.332,20.676 L3.338,24.869 C4.063,25.778 4.887,26.602 5.797,27.327 L9.989,25.334 C10.637,25.681 11.323,25.967 12.039,26.185 L13.596,30.562 C14.167,30.626 14.744,30.666 15.333,30.666 C15.921,30.666 16.498,30.626 17.069,30.562 L18.627,26.185 C19.342,25.967 20.026,25.681 20.676,25.334 L24.869,27.327 C25.778,26.602 26.602,25.778 27.327,24.869 L25.334,20.676 C25.681,20.029 25.967,19.342 26.185,18.627 L30.562,17.069 L30.562,17.069 Z M15.333,20.204 C12.643,20.204 10.461,18.022 10.461,15.333 C10.461,12.643 12.643,10.461 15.333,10.461 C18.022,10.461 20.204,12.643 20.204,15.333 C20.204,18.022 18.022,20.204 15.333,20.204 L15.333,20.204 Z" id="Shape" fill="#F0EFEF" sketch:type="MSShapeGroup"></path>
    </g>
</svg>