<?xml version="1.0" encoding="UTF-8" standalone="no"?>
<svg width="26px" height="26px" viewBox="0 0 26 26" version="1.1" xmlns="http://www.w3.org/2000/svg" xmlns:xlink="http://www.w3.org/1999/xlink" xmlns:sketch="http://www.bohemiancoding.com/sketch/ns">
    <!-- Generator: Sketch 3.3.3 (12081) - http://www.bohemiancoding.com/sketch -->
    <title>world</title>
    <desc>Created with Sketch.</desc>
    <defs></defs>
    <g id="Page-1" stroke="none" stroke-width="1" fill="none" fill-rule="evenodd" sketch:type="MSPage">
        <path d="M0.5,13 C0.5,19.9036397 6.09636026,25.5 13,25.5 C19.9036397,25.5 25.5,19.9036397 25.5,13 C25.5,6.09636026 19.9036397,0.5 13,0.5 C6.09636026,0.5 0.5,6.09636026 0.5,13 Z M23.6831554,14.3283622 C23.6840866,14.3302246 23.6868801,14.3302246 23.6878113,14.332087 C23.667325,14.5062206 23.6375268,14.6766294 23.6086597,14.8479695 C23.5946918,14.8367951 23.576999,14.8246896 23.5648935,14.8144464 C23.4689803,14.7306388 23.3283698,14.6952533 23.2687732,14.7073589 C23.1225755,14.7371571 23.4820171,14.9913736 23.5174025,15.0258279 C23.5257833,15.0342086 23.5462696,15.0537637 23.5751366,15.0798372 C22.6169361,20.0263494 18.2589397,23.7753437 13.0349312,23.7753437 C9.19561084,23.7753437 5.83120036,21.7453369 3.93156089,18.7087073 C4.04609798,18.6938082 4.15504789,18.6938082 4.19229572,18.6379364 C4.23978671,18.5662343 4.28727769,18.4135182 4.35804858,18.3297106 C4.42975065,18.2468342 4.51169589,18.1164668 4.47631044,18.0578014 C4.43999381,17.9982049 4.57036122,17.7374701 4.55825568,17.6676304 C4.54615013,17.5968595 4.43999381,17.4292443 4.61785221,17.2886337 C4.79571061,17.1480231 4.98474336,16.9329169 4.99684891,16.8751827 C5.00802326,16.8165174 5.15142741,16.5669569 5.13839067,16.4486951 C5.12721632,16.3304332 4.99684891,16.1879602 4.91490367,16.1525748 C4.83109605,16.1181205 4.65416885,16.106015 4.58339796,16.0119642 C4.51169589,15.9160511 4.31148878,15.8229315 4.2407179,15.8462114 C4.16994702,15.8694913 4.05075396,15.8927712 3.95670318,15.8322434 C3.86172121,15.7745093 3.7080739,15.7028072 3.64940856,15.6562474 C3.58888083,15.6096876 3.43616472,15.5743022 3.36539384,15.5743022 C3.29369176,15.5743022 3.30486611,15.52588 3.19964098,15.668353 C3.09348466,15.8108259 3.19964098,15.8583169 3.00967703,15.8331746 C2.81971309,15.8117571 3.03295693,15.7996516 3.14097564,15.6571786 C3.24620077,15.5156369 3.1288701,15.4318292 3.00967703,15.4681459 C2.89234636,15.5035313 2.97429159,15.5752334 2.78525884,15.6106188 C2.59622609,15.6441419 2.59622609,15.5268112 2.71448796,15.5035313 C2.83274983,15.4802514 3.04506247,15.3740951 3.04506247,15.3266041 C3.04506247,15.2791131 3.02178258,15.1487457 2.92680061,15.1487457 C2.83181863,15.1487457 2.85509853,15.031415 2.71355676,14.8777677 C2.62788675,14.7837169 2.53104238,14.7250516 2.43512921,14.6878038 C2.35132159,14.1486414 2.29544984,13.6010983 2.29544984,13.038656 C2.29544984,10.3903351 3.2629623,7.96736356 4.85716953,6.09379758 C4.87951823,6.07517366 4.90186693,6.06213692 4.92142204,6.06027453 C4.99964249,6.05189377 5.21009275,6.03699463 5.39633191,6.00533398 C5.58443347,5.97367332 5.78557176,5.85541145 5.85168667,5.86286102 C5.91593918,5.87031058 6.07610486,5.87031058 6.02488909,5.82375079 C5.97274212,5.77067263 5.90010885,5.66079152 5.79209013,5.66079152 C5.68407142,5.66079152 5.78464057,5.4875891 5.81350764,5.4875891 C5.84144351,5.4875891 5.98671006,5.510869 5.97926049,5.59002064 C5.97274212,5.66917229 6.0230267,5.77067263 6.16643085,5.73994317 C6.3116974,5.70828251 6.2893487,5.58908945 6.26141283,5.55835998 C6.23161456,5.52669933 6.21019706,5.44754768 6.18226118,5.39260713 C6.15339411,5.33673538 6.16084368,5.2659645 6.3126286,5.25013417 C6.46348232,5.23523504 6.67207018,5.31252429 6.66462061,5.18681285 C6.65717105,5.06110142 6.66462061,4.92607802 6.70745562,4.85530714 C6.75122182,4.78546746 6.8452726,4.73704527 6.79405683,4.71376538 C6.74470345,4.69048548 6.67951975,4.74542604 6.62830398,4.62716417 C6.5780194,4.5089023 6.67207018,4.42230109 6.72887313,4.3748101 C6.74749704,4.36084216 6.79126324,4.31893835 6.84434141,4.27051617 C8.59592074,3.03016334 10.7283592,2.29358745 13.034,2.29358745 C16.0259322,2.29358745 18.7347808,3.52555952 20.6828424,5.50621302 C20.6753929,5.52669933 20.6735305,5.5546352 20.6539754,5.55835998 C20.5822733,5.57046553 20.4993969,5.61702532 20.4872913,5.510869 C20.4751858,5.40471267 20.4751858,5.20264318 20.3923093,5.32183625 C20.3094329,5.44009811 20.2740475,5.44009811 20.2740475,5.49969465 C20.2740475,5.55835998 20.3448184,5.61795652 20.3215385,5.72411284 C20.2973274,5.83026916 20.2973274,5.90197124 20.3345752,5.90197124 C20.3680983,5.90197124 20.4519059,5.79488372 20.557131,5.77067263 C20.6651497,5.74739273 20.8541825,5.6887274 20.866288,5.79488372 C20.8783936,5.90197124 20.9957242,5.93642549 20.8783936,5.98391647 C20.7592005,6.03140746 20.6297643,6.00812756 20.6055532,5.93642549 C20.5822733,5.86472341 20.4993969,5.86472341 20.4165204,5.92431994 C20.3345752,5.98298528 20.1567168,6.19622912 20.1567168,6.19622912 C20.1567168,6.19622912 19.8717709,6.32566534 19.8373166,6.30238544 C19.8000688,6.27910555 19.9313674,6.14873813 20.0263494,6.09007279 C20.1213314,6.03047626 20.1921022,5.90010885 20.1567168,5.86472341 C20.1213314,5.82933797 20.0747716,5.60491977 20.0980515,5.54532324 C20.1213314,5.48665791 20.2274877,5.40378148 20.110157,5.34418495 C19.9918951,5.28551961 19.9080875,5.21381753 19.8140367,5.17843209 C19.719986,5.14304665 19.6128984,5.31997385 19.530022,5.36839604 C19.4471456,5.41588702 19.4592511,5.47455236 19.3521636,5.48665791 C19.2460073,5.49876345 19.1761676,5.64030522 19.3521636,5.72318164 C19.530022,5.80605807 19.5896185,5.86472341 19.5421276,5.91314559 C19.4946366,5.96063658 19.2934983,5.88986569 19.2934983,5.88986569 C19.2934983,5.88986569 19.139851,5.81909481 19.0439378,5.81909481 C18.949887,5.81909481 18.830694,5.76042948 18.7366432,5.74832393 C18.6416612,5.73621838 18.4516973,5.73621838 18.4060687,5.78370937 C18.3585777,5.83120036 18.2393846,5.97274212 18.1453338,5.92525114 C18.0512831,5.87776015 18.0512831,5.83026916 17.9209156,5.87776015 C17.7905482,5.92525114 17.661112,5.84237471 17.5903411,5.91314559 C17.5186391,5.98391647 17.5782356,5.98391647 17.3528862,5.91314559 C17.128468,5.84237471 17.1768902,5.96063658 16.9627152,5.99602202 C16.7485401,6.03140746 16.6200351,5.96063658 16.5604386,6.03140746 C16.500842,6.10310954 16.4179656,6.23347695 16.3835114,6.14966933 C16.3481259,6.0677241 16.500842,5.92525114 16.4412455,5.87776015 C16.3835114,5.83026916 16.1339509,5.85448025 16.0994966,5.88986569 C16.06318,5.92525114 16.0864599,6.05561855 16.1097398,6.10310954 C16.1339509,6.14966933 16.1693363,6.33963327 16.0994966,6.30424783 C16.0277946,6.26886239 16.0399001,6.14966933 15.968198,6.16270607 C15.8974271,6.17481161 15.8145507,6.21019706 15.7791653,6.23440815 C15.7437798,6.25768804 15.6013069,6.25768804 15.5659214,6.30517903 C15.5314672,6.35267002 15.5789582,6.48303743 15.5184304,6.49421178 C15.4597651,6.50631732 15.4122741,6.55380831 15.2819067,6.47093188 C15.1515393,6.38805546 15.1515393,6.43554644 15.1161538,6.45975753 C15.0807684,6.48303743 14.9150155,6.5780194 14.90291,6.47093188 C14.8908045,6.36477556 14.9261899,6.32939012 14.8200336,6.25768804 C14.7129461,6.18691716 14.7958225,6.18691716 14.9382954,6.23440815 C15.0798372,6.28096794 15.2576956,6.30424783 15.5174992,6.2223026 C15.7782341,6.13942617 15.8853216,6.10404073 15.7782341,6.05654975 C15.6711466,6.00998995 15.5649902,5.96249897 15.4001686,5.93828788 C15.2334845,5.91500798 15.0090663,5.91500798 14.7483315,5.82002601 C14.4885279,5.72504403 14.4289313,5.68965859 14.322775,5.6663787 C14.2156875,5.64216761 13.5657128,5.53601128 13.2686613,5.58350227 C12.9734723,5.63099326 12.1577447,5.8442371 12.1093226,5.87962254 C12.0609004,5.91500798 11.9901295,6.05654975 11.8374134,6.17574281 C11.6837661,6.29400468 11.3997513,6.56591386 11.174402,6.61340484 C10.9499838,6.66089583 10.6892489,6.84992858 10.6892489,6.89741957 C10.6892489,6.94491055 10.7832997,7.12276896 10.7600198,7.1581544 C10.7367399,7.19353984 10.8065796,7.37139824 10.9378782,7.41888923 C11.0673144,7.46544902 11.2926638,7.45427467 11.3038382,7.38257259 C11.3168749,7.31180171 11.4938021,7.1581544 11.5059077,7.26431072 C11.5180132,7.37139824 11.6362751,7.5362199 11.612064,7.60699078 C11.5887841,7.67869286 11.612064,7.74946374 11.6958716,7.73735819 C11.7778168,7.72618384 12.2164101,7.63120187 12.2164101,7.63120187 C12.2164101,7.63120187 12.358883,7.57160534 12.3346719,7.47662337 C12.3104609,7.38257259 12.4892504,7.25220517 12.5237047,7.21681973 C12.5590901,7.18143429 12.6894575,7.03896133 12.5367414,6.99240154 C12.3812317,6.94491055 12.2639011,6.93280501 12.4296539,6.79126324 C12.5954068,6.64972148 12.7015631,6.79126324 12.9148069,6.5780194 C13.1280508,6.36477556 12.8673159,6.30611022 13.0926653,6.29400468 C13.3170835,6.28189913 13.5545385,6.27072478 13.5061163,6.34149567 C13.4595565,6.41226655 13.1876473,6.56684505 13.0330688,6.63761594 C12.8784903,6.70931801 12.9027014,6.83875423 12.9622979,6.90952511 C13.0209633,6.980296 13.0461055,7.14604885 13.1522619,7.12276896 C13.257487,7.09948906 13.3887856,7.01661263 13.5061163,7.02871818 C13.6253093,7.03989253 13.8627643,7.01661263 13.8972185,7.01661263 C13.9335352,7.01661263 14.0983568,7.18236549 14.0033748,7.20564538 C13.9093241,7.22892528 13.790131,7.21775093 13.5889927,7.22892528 C13.3887856,7.24103082 13.1643674,7.24103082 13.1643674,7.27641627 C13.1643674,7.3127329 13.4362766,7.39467813 13.3412946,7.45427467 C13.2463126,7.51294 13.1522619,7.44216912 13.0330688,7.43006358 C12.9148069,7.41888923 12.8440361,7.58464208 12.8086506,7.67869286 C12.772334,7.77367483 12.8673159,7.93942769 12.6903887,7.87983115 C12.5125303,7.82116582 12.3821629,7.82116582 12.3356031,7.84444571 C12.2881122,7.86772561 12.1465704,7.9152166 12.0273773,7.95060204 C11.9100466,7.98598748 11.9566064,7.8919367 11.8020279,7.8919367 L11.6493118,7.8919367 L11.5533987,7.90404225 C11.5533987,7.90404225 11.4593479,7.84537691 11.4472423,7.75039494 C11.4351368,7.65541296 11.4938021,7.54925664 11.4351368,7.52597674 C11.3755403,7.50176565 11.1632276,7.53715109 11.1278422,7.60792198 C11.0924567,7.67869286 11.0561401,7.80906027 11.1036311,7.8686568 C11.1520533,7.92732214 11.293595,8.04558401 11.1632276,8.01019857 C11.0328602,7.97481313 10.8680385,7.96270758 10.7730566,8.03440966 C10.6790058,8.10518054 10.5132529,8.25882785 10.5132529,8.25882785 C10.5132529,8.25882785 10.2171327,8.28210775 10.2171327,8.35380983 C10.2171327,8.4255119 10.2171327,8.51956268 10.1109763,8.53166823 C10.0038888,8.54377377 9.86141585,8.57822802 9.71987409,8.60243911 C9.57740113,8.625719 9.59043787,8.68438434 9.42468501,8.69742108 C9.25893216,8.71045782 9.23472107,8.78029751 9.38929957,8.8035774 C9.54294688,8.8268573 9.77853942,8.92183927 9.79064497,9.0279956 C9.80368171,9.13415192 9.77853942,9.25334498 9.71987409,9.35950131 C9.67983267,9.43306578 9.43585936,9.3837124 9.2933864,9.3837124 C9.15184464,9.3837124 8.86876111,9.33622141 8.74956805,9.3837124 C8.63130618,9.43120339 8.65458607,9.66772712 8.68997152,9.77388345 C8.72628815,9.88003977 8.67879717,9.9396363 8.63130618,9.97502174 C8.58381519,10.0104072 8.57077845,10.1165635 8.63130618,10.1649857 C8.68997152,10.2124767 8.7374625,10.318633 8.78588468,10.3307385 C8.83337567,10.3428441 8.98609178,10.2953531 9.04568832,10.3540184 C9.10528485,10.413615 9.16395019,10.5551567 9.19933563,10.5197713 C9.23565226,10.4843859 9.28221205,10.3307385 9.34180859,10.3651928 C9.40140512,10.4015094 9.54294688,10.3540184 9.6500344,10.3419129 C9.75712192,10.3298073 9.81485606,10.2115455 9.92194358,10.1519489 C10.0280999,10.0932836 9.96850337,10.0932836 9.93404913,10.0215815 C9.89866369,9.95081065 10.0402054,9.86793422 10.1240131,9.7850578 C10.2059583,9.70218137 10.3596056,9.77295225 10.3959223,9.67797028 C10.4313077,9.5829883 10.4434132,9.41816664 10.5365328,9.42934099 C10.632446,9.44144654 10.7628134,9.50011188 10.8447586,9.50011188 C10.9276351,9.50011188 11.1045623,9.36974446 11.1539156,9.34646457 C11.2004754,9.32318467 11.3783338,9.33435902 11.4025449,9.44144654 C11.4258248,9.54760286 11.6269631,9.67797028 11.6744541,9.70125017 C11.7219451,9.72453007 12.0292397,9.81951204 12.0776619,9.85489748 C12.1242217,9.89028292 12.1949926,9.99737044 12.2192037,10.0914212 C12.2424836,10.1864032 12.32536,10.1864032 12.3383967,10.1035268 C12.3495711,10.0206503 12.277869,9.86700303 12.3616766,9.87817738 C12.4436219,9.89028292 12.539535,9.85396629 12.539535,9.85396629 C12.539535,9.85396629 12.3132544,9.70031898 12.2313092,9.66493354 C12.149364,9.62954809 11.9938543,9.55877721 11.9230834,9.44051534 C11.8523125,9.32225347 11.6744541,9.29804238 11.6865597,9.18071171 C11.6986652,9.06244984 11.8644181,9.13322072 11.9584688,9.2282027 C12.0534508,9.32318467 12.2899745,9.45262089 12.372851,9.53549732 C12.4547962,9.61837374 12.5860948,9.65375919 12.6214803,9.7608467 C12.6577969,9.86700303 12.763022,9.9852649 12.7984075,10.0327559 C12.8337929,10.0802469 12.9520548,10.3409817 12.9883714,10.399647 C13.0237568,10.4583124 13.1420187,10.3884727 13.2016152,10.3409817 C13.2602806,10.2934907 13.3682993,10.2702108 13.3794736,10.1752288 C13.3915792,10.0802469 13.2370007,10.009476 13.1904409,9.97409055 C13.1429499,9.93870511 13.3087028,9.90331966 13.3682993,9.85582868 C13.4269646,9.80926889 13.533121,9.72546126 13.5806119,9.79716334 C13.6281029,9.86886542 13.604823,10.1519489 13.6281029,10.1994399 C13.6513828,10.2469309 13.8879066,10.3177018 13.9363287,10.3772983 C13.9828885,10.4359637 14.184958,10.4601748 14.2194123,10.4247893 C14.2557289,10.3894039 14.4447617,10.4490004 14.4931838,10.4601748 C14.5388124,10.4722803 14.6812854,10.4368949 14.7762674,10.413615 C14.8721805,10.3903351 14.9662313,10.318633 14.9541258,10.4722803 C14.9420202,10.6259276 14.9066348,10.8624514 14.7874417,10.9807132 C14.6691799,11.0989751 14.7166708,11.1585716 14.5993402,11.1585716 C14.5434684,11.1585716 14.494115,11.1585716 14.4540736,11.1781267 C14.4158946,11.117599 14.3628164,11.0691768 14.2911144,11.0878007 C14.1495726,11.1231862 13.970783,11.1231862 13.8534523,11.2647279 C13.7342593,11.4072009 13.6876995,11.4183753 13.6634884,11.3708843 C13.6402085,11.3233933 14.0070996,11.122255 13.9586774,11.0626585 C13.9121177,11.0039931 13.6281029,11.027273 13.4735244,11.027273 C13.3189459,11.027273 13.1895097,10.932291 13.0703166,10.9090111 C12.952986,10.8857313 12.7984075,11.027273 12.6810768,11.1455349 C12.5618837,11.2637968 12.4799385,11.1809203 12.372851,11.1809203 C12.2657635,11.1809203 12.0646252,11.027273 12.0646252,11.027273 C12.0646252,11.027273 11.8634869,10.9443966 11.7806104,10.9443966 C11.6986652,10.9443966 11.5319811,10.7907493 11.4844902,10.7907493 C11.4379304,10.7907493 11.307563,10.6836618 11.4025449,10.6361708 C11.4965957,10.589611 11.5906465,10.6836618 11.4965957,10.4229269 C11.4025449,10.1631233 11.1893011,10.2217886 11.1064247,10.2571741 C11.0244794,10.2934907 10.4322389,10.280454 10.3847479,10.280454 C10.3372569,10.280454 9.99457685,10.3987158 9.88842053,10.4462068 C9.78040182,10.4936978 9.59230026,10.5532943 9.54480927,10.5765742 C9.49731829,10.5998541 9.24868901,10.5290833 9.14160149,10.5886798 C9.00099092,10.6669002 8.8706235,10.7898181 8.83430687,10.7898181 C8.79892143,10.7898181 8.69183391,10.8726945 8.62106302,11.0505529 C8.54936095,11.2274801 8.63316857,11.3811274 8.50186996,11.440724 C8.37243374,11.4993893 8.13497881,11.6306879 8.04092803,11.7247387 C7.94594606,11.8187895 7.82768419,12.1512264 7.71035352,12.3048737 C7.59209165,12.458521 7.71035352,12.6000627 7.73363341,12.6950447 C7.75691331,12.7890955 7.83978973,12.9669539 7.71035352,13.133638 C7.5799861,13.2993908 7.59209165,13.381336 7.53249511,13.3934416 C7.47382978,13.4055471 7.59116045,13.4521069 7.61444035,13.5703688 C7.63772024,13.6895619 7.50828402,13.8078237 7.73363341,13.91398 C7.9580516,14.0192052 8.06420793,14.1160495 8.12287326,14.2557289 C8.18246979,14.3982019 8.47859006,14.6347256 8.47859006,14.6347256 C8.47859006,14.6347256 8.69183391,14.8256208 8.79892143,14.907566 C8.90507775,14.9904424 8.94046319,14.9429514 8.96374309,14.8610062 C8.98702298,14.7771986 9.12949594,14.7641618 9.2943176,14.7641618 C9.46007046,14.7641618 9.57833232,14.8014097 9.74408518,14.7771986 C9.90983803,14.7539187 10.0755909,14.6459 10.1351874,14.6226201 C10.1938528,14.5993402 10.3949911,14.4699039 10.5477072,14.5639547 C10.7022857,14.6598679 10.6790058,14.7883729 10.7618822,14.8731117 C10.8438274,14.955057 10.9853692,14.907566 11.0924567,14.8256208 C11.198613,14.7418131 11.1520533,14.7771986 11.2814895,14.8489006 C11.4118569,14.9187403 11.4714534,14.9895112 11.3531916,15.0975299 C11.2339985,15.2027551 11.3057006,15.3703703 11.2339985,15.535192 C11.1632276,15.7009448 11.1753331,15.7242247 11.3057006,15.7940644 C11.436068,15.8648353 11.6725917,16.3043597 11.7433626,16.3881673 C11.8150647,16.4701126 11.7200827,16.7066363 11.8029591,16.8491093 C11.8858356,16.9897198 11.968712,17.085633 11.8746612,17.1573351 C11.778748,17.2271748 11.6139264,17.3584734 11.602752,17.5949971 C11.5915777,17.8315208 11.650243,17.9963425 11.697734,18.0801501 C11.745225,18.1639578 11.8625557,18.3883759 11.9221522,18.4703212 C11.9817487,18.5531976 12.0525196,18.7543359 12.063694,18.8847033 C12.0757995,19.0150707 12.0413453,19.1696492 12.1000106,19.2394889 C12.1596071,19.3102598 12.1949926,19.4173473 12.3011489,19.5113981 C12.4082364,19.6073113 12.4426907,19.8075184 12.4426907,19.8075184 C12.4426907,19.8075184 12.4790073,19.8903948 12.4901816,20.0207622 C12.501356,20.1511296 12.5134615,20.2330749 12.6317234,20.2926714 C12.7490541,20.3513367 12.8319305,20.3634423 12.8924582,20.3047769 C12.9511236,20.2461116 13.2472438,20.2330749 13.4008912,20.2461116 C13.5545385,20.2582171 13.7314657,20.1762719 13.8860442,20.0691844 C14.0406227,19.9620969 14.2650409,19.6790133 14.3479173,19.5961369 C14.4307937,19.5123293 14.6198265,19.358682 14.5974778,19.2646312 C14.5741979,19.1705804 14.5257757,19.0755985 14.6198265,19.0281075 C14.7148084,18.9796853 14.9401578,18.8865657 14.9513322,18.8148636 C14.9634377,18.7431616 14.8675246,18.4470413 14.8442447,18.3893071 C14.821896,18.3297106 14.9038412,18.2216919 14.997892,18.1043612 C15.0938051,17.9851682 15.3899254,17.9032229 15.4364852,17.8557319 C15.4839762,17.8063786 15.6143436,17.6071027 15.6385547,17.4525242 C15.6609034,17.2970144 15.5910637,17.1089129 15.6385547,17.0269677 C15.6851145,16.94316 15.6506602,16.8733204 15.5426415,16.7774072 C15.4364852,16.6824252 15.4597651,16.3984105 15.4243797,16.3518507 C15.3899254,16.3043597 15.4122741,16.0547992 15.483045,16.0305881 C15.5538159,16.0091706 15.7083944,15.7707845 15.8033764,15.6646282 C15.8983583,15.5584719 16.1702675,15.2269661 16.3006349,15.2027551 C16.4300711,15.1794752 16.6312094,14.9895112 16.643315,14.8833549 C16.6554205,14.7762674 16.9971694,14.3739908 17.0102061,14.2920455 C17.0223117,14.2082379 17.1647846,13.9009433 17.1051881,13.8292412 C17.047454,13.7584703 16.5846496,13.9363287 16.5259843,13.9605398 C16.4663878,13.9838197 16.3015661,14.0788017 16.110671,14.065765 C15.9225694,14.0536594 16.0045147,13.9009433 15.9924091,13.8292412 C15.9812348,13.7584703 15.7800965,13.4865612 15.7326055,13.4744556 C15.6851145,13.4632813 15.5435727,13.3198771 15.4839762,13.1792665 C15.4253109,13.0367936 15.3424344,12.8598664 15.2474525,12.7527789 C15.1524705,12.6466225 15.0938051,12.3989245 14.997892,12.2322404 C14.9038412,12.0664875 14.821896,11.8532437 14.7380883,11.6995964 C14.7185332,11.6614174 14.6961845,11.6260319 14.6756982,11.5906465 C14.7855793,11.5636418 14.9448138,11.5142884 14.9643689,11.5822657 C14.9867176,11.664211 15.1180162,11.8420694 15.1412961,11.9724368 C15.164576,12.1028042 15.2949434,12.0553132 15.307049,12.1735751 C15.3200857,12.2927681 15.4374164,12.5767829 15.4839762,12.6112371 C15.5323984,12.6466225 15.744711,12.8365865 15.7800965,12.9073574 C15.8154819,12.9781283 15.8629729,13.0731102 15.8983583,13.2509686 C15.9337438,13.4278958 15.9691292,13.6644196 16.0650424,13.699805 C16.1600244,13.7351904 16.4784933,13.6402085 16.5380899,13.604823 C16.5976864,13.5694376 16.9869262,13.3794736 17.1293992,13.3673681 C17.2718722,13.3561938 17.2960833,13.2602806 17.4720793,13.2258263 C17.6499377,13.1904409 17.7803051,13.0610047 17.8985669,12.9650915 C18.0168288,12.8710407 18.1593018,12.634517 18.2058616,12.5516406 C18.2542837,12.4696953 18.3725456,12.4100988 18.3129491,12.316048 C18.2542837,12.2201349 18.0047233,12.0795243 17.9097413,12.0664875 C17.8147593,12.0553132 17.8268649,11.9007347 17.7681995,11.9007347 C17.7095342,11.9007347 17.7207085,11.9826799 17.6024467,12.0432077 C17.4841848,12.101873 17.3649917,12.2201349 17.2821153,12.196855 C17.1992389,12.1735751 17.3063264,12.1139785 17.1768902,12.0078222 C17.047454,11.9016659 16.9981006,11.8774548 16.9981006,11.7955096 C16.9981006,11.7126331 16.7392282,11.5580546 16.7150171,11.4397928 C16.690806,11.3215309 16.8919443,11.155778 16.9515408,11.2628656 C17.0102061,11.3690219 17.0586283,11.5347747 17.2113444,11.6055456 C17.3649917,11.6763165 17.5074647,11.7955096 17.5791668,11.8187895 C17.6499377,11.8420694 17.8277961,11.688422 17.8864614,11.7126331 C17.9451267,11.7349818 18.0643198,11.9482257 18.1714073,11.9845423 C18.2766324,12.0199278 18.6323493,12.0320333 18.6919458,12.0320333 C18.7515423,12.0320333 18.9992404,12.0441388 19.0467314,11.973368 C19.0942224,11.9025971 19.1296078,11.9025971 19.1892043,11.9025971 C19.2469385,11.9025971 19.354026,12.1158409 19.4378336,12.1391208 C19.5207101,12.1624007 19.6743574,12.1512264 19.6622518,12.3058049 C19.6510775,12.458521 19.7330227,12.5898196 19.8158991,12.6009939 C19.8997068,12.6121683 20.0887395,12.4231355 20.0887395,12.4231355 C20.0887395,12.4231355 20.0887395,12.7192558 20.0775652,12.8263433 C20.0645284,12.9315685 20.2070014,13.3236019 20.2070014,13.3236019 C20.2070014,13.3236019 20.3839286,13.6895619 20.4314196,13.7724383 C20.4789106,13.8553147 20.6800489,14.1030128 20.6800489,14.2101003 C20.6800489,14.3171878 20.7033287,14.4829407 20.775962,14.4829407 C20.8467329,14.4829407 20.9175038,14.2939079 20.999449,14.1747149 C21.0841878,14.0573842 21.1074677,13.8907002 21.141922,13.7724383 C21.1773074,13.6541764 21.1773074,13.4409326 21.1773074,13.3589873 C21.1773074,13.2751797 21.2471471,13.2044088 21.4147624,13.133638 C21.5805152,13.0628671 21.6978459,12.8617288 21.8393876,12.7546413 C21.9818606,12.6475537 21.9706863,12.4706265 22.254701,12.4706265 C22.5387157,12.4706265 22.5135734,12.4706265 22.5852755,12.3989245 C22.6560464,12.3281536 22.7258861,12.2806626 22.7622027,12.41103 C22.7975881,12.5413974 22.9987264,12.7304302 23.0341119,12.7779212 C23.0694973,12.8263433 23.1402682,12.9557796 23.130025,13.0982525 C23.1179195,13.2397943 23.1411994,13.4055471 23.1998647,13.4055471 C23.2585301,13.4055471 23.3777231,13.2044088 23.3777231,13.2044088 C23.3777231,13.2044088 23.6375268,13.0284128 23.6263524,13.2165144 C23.6133157,13.4055471 23.6496323,13.6066854 23.6496323,13.7240161 C23.6496323,13.7733695 23.6887425,13.8497275 23.7315775,13.9195672 C23.7269216,13.9745078 23.7278528,14.0303795 23.7231968,14.0853201 C23.638458,14.1076688 23.6375268,14.2696968 23.6831554,14.3283622 L23.6831554,14.3283622 Z M17.1145001,9.36881327 C17.185271,9.41537306 17.209482,9.48707513 17.2560418,9.55784602 C17.304464,9.6286169 17.3864092,9.60440581 17.4450746,9.66400234 C17.5037399,9.72359887 17.2793217,9.79436975 17.3752349,9.86514064 C17.4692857,9.93684271 17.5158455,10.2199262 17.5288822,10.2916283 C17.5409878,10.3623992 17.2690786,10.3977846 17.185271,10.3866103 C17.1023945,10.3745047 16.8556276,10.2916283 16.7708888,10.2683484 C16.6880124,10.2441373 16.6414526,9.94894826 16.7476089,9.96012261 C16.8556276,9.97222815 16.8789075,9.93684271 16.9962382,9.83068639 C17.1154313,9.72359887 16.8202422,9.67610788 16.7373658,9.65282799 C16.6544893,9.62954809 16.4878053,9.36881327 16.4291399,9.28593684 C16.3714058,9.20306041 16.4161032,9.07362419 16.5604386,8.97771102 C16.6312094,8.93022004 16.8202422,9.03637636 16.9152242,8.97771102 C17.0092749,8.91904569 17.1042569,8.84734361 17.1396424,8.82406371 C17.175959,8.80078382 17.4124827,8.85944915 17.446937,8.93022004 C17.4832536,9.00099092 17.6247954,9.10807844 17.5782356,9.14346388 C17.5298134,9.17884932 17.3165696,9.21423476 17.2467299,9.14346388 C17.1768902,9.0717618 17.0092749,9.15463823 16.9971694,9.28500564 C16.9841327,9.41630425 17.0446604,9.32132228 17.1145001,9.36881327 L17.1145001,9.36881327 Z M13.8487963,9.56995156 C13.7770943,9.54667167 13.8720762,9.40419871 13.9437783,9.35670772 C14.013618,9.30921673 14.0964944,9.19095486 14.1681965,9.072693 C14.2389674,8.95443113 14.3339494,8.94232558 14.3926147,8.95443113 C14.45128,8.96653667 14.5816474,9.17884932 14.6170329,9.2505514 C14.6524183,9.32132228 14.7706802,9.22634031 14.8191024,9.20306041 C14.8656622,9.17978051 14.9373642,9.10807844 14.9494698,9.0494131 C14.9615753,8.99074776 15.0677317,8.95443113 15.1859935,8.95443113 C15.3042554,8.95443113 15.1980991,9.0494131 15.1152227,9.072693 C15.031415,9.09597289 15.0798372,9.14439507 15.2204478,9.19095486 C15.3629207,9.23844585 15.4932882,9.36881327 15.6478667,9.4507585 C15.801514,9.53363493 15.8247939,9.69938778 15.7298119,9.72266768 C15.6357611,9.74594757 15.3517464,9.77015866 15.2446589,9.75805312 C15.1385025,9.74594757 15.0081351,9.63979125 14.8544878,9.61558016 C14.7008405,9.59230026 14.5108766,9.60347461 14.45128,9.68728223 C14.3916835,9.77108986 14.1793709,9.73384203 14.0834577,9.73384203 C13.9884757,9.73384203 13.871145,9.85210389 13.8478651,9.8055441 C13.8487963,9.8064753 13.9195672,9.59416265 13.8487963,9.56995156 L13.8487963,9.56995156 Z M14.2510729,6.94211697 C14.3097383,6.77636411 14.641244,6.97750241 14.5816474,7.06037884 C14.5229821,7.14418646 14.2110315,7.05479166 14.2510729,6.94211697 L14.2510729,6.94211697 Z M14.7120149,15.44021 C14.7706802,15.535192 14.5816474,15.8415554 14.4754911,15.8192067 C14.370266,15.7940644 14.4047202,15.5230864 14.4401057,15.4634899 C14.4754911,15.4038934 14.6812854,15.3889942 14.7120149,15.44021 L14.7120149,15.44021 Z M10.4164086,9.93684271 C10.4396885,9.88935173 10.3800919,9.79436975 10.2981467,9.92473717 C10.2702108,9.97036576 10.3931287,9.9843337 10.4164086,9.93684271 L10.4164086,9.93684271 Z M17.5158455,5.61702532 C17.6471441,5.6877962 17.8315208,5.71666327 17.9190533,5.62913087 C17.9898241,5.55835998 17.9311588,5.43916692 17.8724935,5.42799257 C17.8128969,5.41588702 17.7756491,5.32090505 17.9302276,5.23895982 C18.0838749,5.15608339 18.2496278,5.04899587 18.4274862,5.02571598 C18.6044134,5.00243608 19.00669,4.99033054 19.1482317,5.02571598 C19.2897735,5.06203261 19.5039485,4.87113747 19.5626139,4.78919224 C19.6212792,4.70724701 19.3735811,4.64765047 19.3028102,4.74170125 C19.2311082,4.83668323 18.8893593,4.81247213 18.8176572,4.78919224 C18.7468863,4.76591234 18.1788569,4.88417421 18.0615262,4.88417421 C17.9423331,4.88417421 17.8948422,5.02571598 17.7300205,5.09741805 C17.5633365,5.16818894 17.3389183,5.27527646 17.2560418,5.3106619 C17.1740966,5.34604734 17.0912202,5.4875891 17.1619911,5.51180019 C17.2327619,5.53508009 17.3864092,5.54625444 17.5158455,5.61702532 L17.5158455,5.61702532 Z M11.3038382,9.93684271 C11.3634347,9.85396629 11.2563472,9.73477322 11.1976818,9.73477322 C11.0859384,9.73477322 11.031929,9.91263162 11.1017687,9.97129696 C11.1734708,10.0318247 11.2442416,10.0197191 11.3038382,9.93684271 L11.3038382,9.93684271 Z M11.8364822,10.2562429 C11.8960787,10.2795228 11.9426385,10.3512249 11.9901295,10.3623992 C12.0385517,10.3745047 12.192199,10.3623992 12.1456392,10.2441373 C12.0990794,10.1258755 11.9901295,10.1258755 11.9556752,10.1258755 C11.9202898,10.1258755 11.7666425,10.09049 11.707046,10.1258755 C11.6632798,10.1519489 11.7768856,10.232963 11.8364822,10.2562429 L11.8364822,10.2562429 Z M8.66482923,8.33891069 C8.75888001,8.35101624 8.86689872,8.28024536 8.94884395,8.24485991 C9.03078918,8.20947447 9.14998225,8.13870359 9.14998225,8.03161607 C9.14998225,7.92545975 9.12670235,7.83047778 9.07828017,7.78298679 C9.03078918,7.7354958 8.94791276,7.72339026 8.87714187,7.7354958 C8.77005436,7.75411972 8.75888001,7.86586322 8.68810912,7.86586322 C8.61733824,7.86586322 8.53446181,7.88914311 8.55774171,7.97201954 C8.5810216,8.05489597 8.62944379,8.1135613 8.55774171,8.14894675 C8.48697083,8.18526338 8.56891606,8.32773634 8.66482923,8.33891069 L8.66482923,8.33891069 Z M9.24496422,7.83047778 C9.36322609,7.87796876 9.61185537,7.92545975 9.5168734,7.97295074 C9.42189143,8.02044172 9.25613857,8.14987794 9.23285868,8.22158002 C9.20957878,8.2932821 9.43399697,8.36405298 9.43399697,8.36405298 C9.43399697,8.36405298 9.36229489,8.44692941 9.42189143,8.4702093 C9.48055676,8.4934892 9.5168734,8.38733287 9.61092418,8.38733287 C9.70497496,8.38733287 9.89400771,8.44599821 9.98898968,8.44599821 C10.0849028,8.44599821 10.237619,8.3156308 10.2255134,8.23275437 C10.2134079,8.14987794 10.095146,8.01951053 9.98898968,7.97201954 C9.88376455,7.92452855 9.76457149,7.71128471 9.69380061,7.66379373 C9.62302972,7.61630274 9.76457149,7.49804087 9.68169506,7.41516444 C9.59788744,7.33228801 9.5392221,7.34439356 9.44424013,7.28479703 C9.34925815,7.22613169 9.26638173,7.29690257 9.20771639,7.36767346 C9.14905105,7.43844434 9.07734897,7.35556791 9.0056469,7.37884781 C8.91066492,7.41143966 8.94698156,7.53342631 8.99447255,7.59209165 C9.04289473,7.65261938 9.12670235,7.78298679 9.24496422,7.83047778 L9.24496422,7.83047778 Z M21.1624083,14.1495726 C21.085119,14.1840268 21.0199353,14.5872346 21.1624083,14.6347256 C21.30395,14.6831478 21.3868265,14.4466241 21.3402667,14.3860963 C21.2918445,14.3283622 21.2685646,14.1020816 21.1624083,14.1495726 L21.1624083,14.1495726 Z M16.8649396,17.1908581 C16.7168795,17.1489543 16.7001179,17.3454366 16.5818561,17.475804 C16.462663,17.6071027 16.3332268,17.7123278 16.286667,17.7002222 C16.2382448,17.6881167 15.9784412,17.7830987 16.0613176,17.9600259 C16.144194,18.1378843 16.1320885,18.3157427 16.0492121,18.3995503 C15.9663356,18.4814955 16.1199829,18.7180193 16.0976342,18.8483867 C16.0734231,18.9778229 16.1320885,19.0616305 16.2978413,19.0616305 C16.4635942,19.0616305 16.5231907,19.002034 16.5939616,18.8483867 C16.6647325,18.6938082 16.6759068,18.5401609 16.7466777,18.4107246 C16.8183798,18.279426 16.8779763,18.0065857 16.9133618,17.9358148 C16.9487472,17.8659751 17.0195181,17.6415569 17.0083437,17.5102583 C16.995307,17.3817533 16.9487472,17.214138 16.8649396,17.1908581 L16.8649396,17.1908581 Z M7.52597674,6.22882097 C7.45520586,6.2213714 7.38443498,6.28469272 7.22706289,6.28469272 C7.07062199,6.28469272 6.96725925,6.34708284 6.90393794,6.28469272 C6.84061662,6.2213714 6.5789506,6.18971075 6.55473951,6.22882097 C6.52307885,6.28189913 6.46068873,6.28376152 6.52307885,6.39457383 C6.58733136,6.50445493 6.63482235,6.56777625 6.6897629,6.56032668 C6.74470345,6.55287712 6.9337362,6.54449635 6.9579473,6.60781767 C6.98122719,6.67113898 7.0454797,6.72607954 7.1786407,6.68696931 C7.3136641,6.64785909 7.4235452,6.623648 7.45427467,6.57615701 C7.48500413,6.52866602 7.69917917,6.52121646 7.69917917,6.52121646 C7.69917917,6.52121646 7.87331278,6.38619306 7.81092266,6.33125251 C7.74667015,6.27538076 7.59767882,6.23627054 7.52597674,6.22882097 Z" id="world" fill="#F0EFEF" sketch:type="MSShapeGroup"></path>
    </g>
</svg>